HIERARCHY
ROOT Hips
{
	OFFSET 0.000000 0.000000 0.000000
	CHANNELS 6 Xposition Yposition Zposition Xrotation Yrotation Zrotation
	JOINT LeftUpLeg_virtual
	{
		OFFSET 0.000000 0.000000 0.000000
		CHANNELS 3 Xrotation Yrotation Zrotation
		JOINT LeftUpLeg
		{
			OFFSET 10.205400 -3.823500 0.155100
			CHANNELS 3 Xrotation Yrotation Zrotation
			JOINT LeftLeg
			{
				OFFSET 0.708757 -12.982077 0.567790
				CHANNELS 3 Xrotation Yrotation Zrotation
				JOINT LeftFoot
				{
					OFFSET -0.708756 -10.717838 -2.184338
					CHANNELS 3 Xrotation Yrotation Zrotation
					JOINT LeftToeBase
					{
						OFFSET 0.108149 -7.191104 7.560241
						CHANNELS 3 Xrotation Yrotation Zrotation
						JOINT LeftToe_End
						{
							OFFSET 0.070230 0.081724 4.490308
							CHANNELS 3 Xrotation Yrotation Zrotation
							End Site
							{
								OFFSET 0 0 0
							}
						}
					}
				}
			}
		}
	}
	JOINT RightUpLeg_virtual
	{
		OFFSET 0.000000 0.000000 0.000000
		CHANNELS 3 Xrotation Yrotation Zrotation
		JOINT RightUpLeg
		{
			OFFSET -10.205400 -3.823500 0.005500
			CHANNELS 3 Xrotation Yrotation Zrotation
			JOINT RightLeg
			{
				OFFSET -0.708756 -12.982134 0.610632
				CHANNELS 3 Xrotation Yrotation Zrotation
				JOINT RightFoot
				{
					OFFSET 0.708754 -10.717769 -1.945823
					CHANNELS 3 Xrotation Yrotation Zrotation
					JOINT RightToeBase
					{
						OFFSET -0.108140 -7.191069 7.372968
						CHANNELS 3 Xrotation Yrotation Zrotation
						JOINT RightToe_End
						{
							OFFSET -0.070227 0.081735 4.479403
							CHANNELS 3 Xrotation Yrotation Zrotation
							End Site
							{
								OFFSET 0 0 0
							}
						}
					}
				}
			}
		}
	}
	JOINT Spine_virtual
	{
		OFFSET 0.000000 0.000000 0.000000
		CHANNELS 3 Xrotation Yrotation Zrotation
		JOINT Spine
		{
			OFFSET 0.000000 6.876099 0.125700
			CHANNELS 3 Xrotation Yrotation Zrotation
			JOINT Spine1
			{
				OFFSET 0.000000 5.730043 0.104720
				CHANNELS 3 Xrotation Yrotation Zrotation
				JOINT Spine1_split
				{
					OFFSET 0.000000 5.730043 0.104720
					CHANNELS 3 Xrotation Yrotation Zrotation
					JOINT Spine2
					{
						OFFSET 0.000000 5.730043 0.104720
						CHANNELS 3 Xrotation Yrotation Zrotation
						JOINT Neck_virtual
						{
							OFFSET 0.000000 0.000000 0.000000
							CHANNELS 3 Xrotation Yrotation Zrotation
							JOINT Neck
							{
								OFFSET 0.000000 10.314075 0.188496
								CHANNELS 3 Xrotation Yrotation Zrotation
								JOINT Head
								{
									OFFSET 0.000000 7.643700 -2.377400
									CHANNELS 3 Xrotation Yrotation Zrotation
									JOINT HeadTop_End
									{
										OFFSET 0.000000 43.788605 -13.619600
										CHANNELS 3 Xrotation Yrotation Zrotation
										End Site
										{
											OFFSET 0 0 0
										}
									}
								}
							}
						}
						JOINT LeftShoulder_virtual
						{
							OFFSET 0.000000 0.000000 0.000000
							CHANNELS 3 Xrotation Yrotation Zrotation
							JOINT LeftShoulder
							{
								OFFSET 2.196100 4.412489 0.087492
								CHANNELS 3 Xrotation Yrotation Zrotation
								JOINT LeftShoulder_split
								{
									OFFSET 2.196100 4.412489 0.087492
									CHANNELS 3 Xrotation Yrotation Zrotation
									JOINT LeftArm
									{
										OFFSET 8.771219 -2.981674 -0.026999
										CHANNELS 3 Xrotation Yrotation Zrotation
										JOINT LeftForeArm
										{
											OFFSET 8.512804 0.000000 -0.000000
											CHANNELS 3 Xrotation Yrotation Zrotation
											JOINT LeftHand
											{
												OFFSET 18.484802 0.000000 -0.000000
												CHANNELS 3 Xrotation Yrotation Zrotation
												End Site
												{
													OFFSET 0 0 0
												}
											}
										}
									}
								}
							}
						}
						JOINT RightShoulder_virtual
						{
							OFFSET 0.000000 0.000000 0.000000
							CHANNELS 3 Xrotation Yrotation Zrotation
							JOINT RightShoulder
							{
								OFFSET -2.196100 4.412496 0.070690
								CHANNELS 3 Xrotation Yrotation Zrotation
								JOINT RightShoulder_split
								{
									OFFSET -2.196100 4.412496 0.070690
									CHANNELS 3 Xrotation Yrotation Zrotation
									JOINT RightArm
									{
										OFFSET -8.771282 -2.981682 -0.094208
										CHANNELS 3 Xrotation Yrotation Zrotation
										JOINT RightForeArm
										{
											OFFSET -8.494598 0.000000 0.000000
											CHANNELS 3 Xrotation Yrotation Zrotation
											JOINT RightHand
											{
												OFFSET -18.483803 0.000000 0.000001
												CHANNELS 3 Xrotation Yrotation Zrotation
												End Site
												{
													OFFSET 0 0 0
												}
											}
										}
									}
								}
							}
						}
					}
				}
			}
		}
	}
}
MOTION
Frames: 4
Frame Time: 0.03333333
2.502809 33.933929 -0.379217 0.000000 0.000000 0.000000 0.020979 -14.035243 -2.065186 -9.179770 21.606730 10.292413 30.812814 7.838697 4.732326 -20.055838 11.275827 -12.512668 -0.000001 -0.000010 0.000003 0.000000 0.000000 0.000000 0.020979 -14.035243 -2.065186 -19.006704 -17.001172 -12.532486 18.888524 10.292094 -2.716420 -2.765750 7.361020 10.987462 0.000014 -0.000004 0.000000 0.000000 0.000000 0.000000 0.020979 -14.035243 -2.065186 1.258735 -1.035738 -2.100434 0.247988 -0.899450 -0.732541 0.000000 0.000000 0.000000 0.000000 0.000000 0.000000 0.243784 -0.917159 -0.703880 0.749591 2.295820 1.468098 -1.250654 13.693914 -1.535070 0.000000 0.000000 0.000000 0.243784 -0.917159 -0.703880 -1.488743 9.670789 -3.001480 0.000000 0.000000 0.000000 40.860490 -60.704850 -25.987196 0.000010 -22.817336 0.000007 0.000000 0.000000 0.000000 0.243784 -0.917159 -0.703880 4.389553 5.095587 -14.946390 0.000000 0.000000 0.000000 -41.397852 -19.780021 36.650843 179.999978 72.302299 179.999991 0.000000 0.000000 0.000000 
2.398051 33.940197 -0.377337 0.000000 0.000000 0.000000 0.044887 -13.663571 -2.076526 -9.413516 21.417223 10.624455 30.822455 7.805402 4.663506 -19.837373 11.075474 -12.673022 -0.000002 -0.000007 0.000002 0.000000 0.000000 0.000000 0.044887 -13.663571 -2.076526 -18.730028 -16.821938 -12.404394 19.153795 10.327309 -2.405631 -3.151613 6.719248 10.624167 0.000015 0.000001 0.000004 0.000000 0.000000 0.000000 0.044887 -13.663571 -2.076526 1.266775 -1.014841 -1.935103 0.241808 -0.884492 -0.647218 0.000000 0.000000 0.000000 0.000000 0.000000 0.000000 0.237301 -0.899707 -0.618706 0.663438 2.273468 1.368831 -1.324470 13.444070 -1.498672 0.000000 0.000000 0.000000 0.237301 -0.899707 -0.618706 -1.475809 9.676770 -3.126249 0.000000 0.000000 0.000000 40.863475 -61.027686 -25.944144 0.000002 -22.683934 0.000024 0.000000 0.000000 0.000000 0.237301 -0.899707 -0.618706 4.393937 5.191690 -14.254576 0.000000 0.000000 0.000000 -38.714776 -17.278393 37.271892 179.999991 73.320360 179.999964 0.000000 0.000000 0.000000 
2.289317 33.948059 -0.377518 0.000000 0.000000 0.000000 0.029487 -13.297882 -2.111765 -9.614428 21.183345 10.992524 30.833342 7.767451 4.577845 -19.605355 10.875879 -12.846612 -0.000004 -0.000007 0.000004 0.000000 0.000000 0.000000 0.029487 -13.297882 -2.111765 -18.381344 -16.671993 -12.194053 19.362415 10.355307 -2.187595 -3.514808 6.094185 10.294570 0.000007 0.000004 0.000002 0.000000 0.000000 0.000000 0.029487 -13.297882 -2.111765 1.281839 -1.011807 -1.777752 0.239822 -0.882721 -0.566064 0.000000 0.000000 0.000000 0.000000 0.000000 0.000000 0.235035 -0.895541 -0.537205 0.553540 2.244815 1.305166 -1.371440 13.207171 -1.460608 0.000000 0.000000 0.000000 0.235035 -0.895541 -0.537205 -1.467159 9.681594 -3.211858 0.000000 0.000000 0.000000 40.861364 -61.366702 -25.900163 0.000008 -22.538069 0.000012 0.000000 0.000000 0.000000 0.235035 -0.895541 -0.537205 4.385650 5.270031 -13.433552 0.000000 0.000000 0.000000 -35.974005 -14.618147 37.730416 179.999937 74.386252 -179.999978 0.000000 0.000000 0.000000 
2.177659 33.957870 -0.379816 0.000000 0.000000 0.000000 -0.021230 -12.912990 -2.151321 -9.772659 20.883252 11.326959 30.806366 7.736766 4.542997 -19.328556 10.691182 -13.054132 -0.000006 -0.000005 0.000004 0.000000 0.000000 0.000000 -0.021230 -12.912990 -2.151321 -17.970438 -16.520634 -11.974951 19.533074 10.383844 -1.960793 -3.870176 5.453213 9.954138 0.000011 0.000010 -0.000001 0.000000 0.000000 0.000000 -0.021230 -12.912990 -2.151321 1.301207 -1.026001 -1.633967 0.240733 -0.893313 -0.492671 0.000000 0.000000 0.000000 0.000000 0.000000 0.000000 0.235763 -0.903965 -0.463006 0.414344 2.204613 1.287389 -1.405870 12.968856 -1.411020 0.000000 0.000000 0.000000 0.235763 -0.903965 -0.463006 -1.463771 9.674976 -3.227023 0.000000 0.000000 0.000000 40.806395 -61.723402 -25.910208 -0.000013 -22.361293 0.000015 0.000000 0.000000 0.000000 0.235763 -0.903965 -0.463006 4.361894 5.326286 -12.458694 0.000000 0.000000 0.000000 -33.127459 -11.766433 37.966778 180.000005 75.519667 179.999964 0.000000 0.000000 0.000000 
